<svg width="32" height="60" viewBox="0 0 32 60" fill="none" xmlns="http://www.w3.org/2000/svg">
<g clip-path="url(#clip0_190_565)">
<path d="M16.1827 60C20.3762 59.9953 24.3967 58.3656 27.362 55.4684C30.3273 52.5712 31.9954 48.6431 32.0002 44.5459L32.0002 15.4555C32.0198 13.4137 31.6251 11.3884 30.839 9.49647C30.0529 7.60458 28.8908 5.88364 27.42 4.43307C25.9492 2.9825 24.1988 1.83103 22.2699 1.04522C20.341 0.259406 18.2718 -0.145181 16.182 -0.145181C14.0921 -0.145181 12.023 0.259405 10.0941 1.04522C8.16515 1.83103 6.41474 2.9825 4.94393 4.43307C3.47313 5.88364 2.31109 7.60458 1.52496 9.49647C0.738821 11.3884 0.344162 13.4137 0.363792 15.4554L0.36379 44.5459C0.36896 48.6433 2.03729 52.5713 5.00283 55.4685C7.96836 58.3656 11.989 59.9953 16.1827 60ZM2.22565 15.4554C2.22565 11.8389 3.69612 8.3704 6.31357 5.81309C8.93101 3.25577 12.481 1.81909 16.1827 1.81909C19.8843 1.81909 23.4343 3.25577 26.0518 5.81309C28.6692 8.3704 30.1397 11.8389 30.1397 15.4555L30.1397 29.0918L2.22565 29.0918L2.22565 15.4554ZM2.22565 30.9095L30.1397 30.9095L30.1397 44.5459C30.1397 48.1625 28.6692 51.631 26.0518 54.1883C23.4343 56.7456 19.8843 58.1823 16.1827 58.1823C12.481 58.1823 8.93101 56.7456 6.31356 54.1883C3.69611 51.6309 2.22565 48.1625 2.22565 44.5459L2.22565 30.9095Z" fill="#283441"/>
<path d="M2.2255 29.0918L2.2255 15.4554C2.2255 11.8388 3.69596 8.37038 6.31341 5.81306C8.93086 3.25575 12.4809 1.81907 16.1825 1.81907C19.8841 1.81907 23.4342 3.25575 26.0516 5.81306C28.6691 8.37038 30.1395 11.8388 30.1395 15.4554L30.1395 29.0918L2.2255 29.0918Z" fill="white"/>
<path d="M2.2255 44.5459L2.2255 30.9095L30.1395 30.9095L30.1395 44.5459C30.1395 48.1625 28.6691 51.6309 26.0516 54.1883C23.4342 56.7456 19.8841 58.1823 16.1825 58.1822C12.4809 58.1822 8.93086 56.7456 6.31341 54.1883C3.69596 51.6309 2.2255 48.1625 2.2255 44.5459Z" fill="#1264D5"/>
</g>
<defs>
<clipPath id="clip0_190_565">
<rect width="31.6364" height="60" fill="white" transform="translate(32 60) rotate(-180)"/>
</clipPath>
</defs>
</svg>
