<svg width="52" height="55" viewBox="0 0 52 55" fill="none" xmlns="http://www.w3.org/2000/svg">
<g clip-path="url(#clip0_190_569)">
<path fill-rule="evenodd" clip-rule="evenodd" d="M50.0136 8.00414V8.11959C50.0136 18.1489 50.0136 27.6228 46.9832 35.4521C43.6109 44.1552 36.9053 49.8013 25.8829 53.2172C14.846 49.7971 8.14038 44.1511 4.78039 35.4521C1.75104 27.6228 1.75104 18.1489 1.75104 8.11959V8.00518C9.23428 3.92459 17.5745 1.76416 25.8767 1.76416C34.1788 1.76416 42.5242 3.92355 50.0136 8.00414Z" fill="#1264D5"/>
<path d="M50.9291 6.49481C43.1678 2.24572 34.5051 0 25.8765 0C17.2478 0 8.59548 2.24573 0.846479 6.48962C0.593214 6.62281 0.380772 6.82332 0.232101 7.06951C0.083429 7.3157 0.00416785 7.59821 0.00286865 7.88656V8.11956C0.00286865 18.3205 0.00286413 27.9556 3.15273 36.1001C6.72491 45.3503 13.7972 51.3324 25.4016 54.922C25.7117 55.0315 26.0495 55.0315 26.3596 54.922C37.9547 51.3365 45.027 45.3524 48.6084 36.1001C51.7593 27.9597 51.7593 18.3247 51.7593 8.11956V7.88656C51.7587 7.6004 51.6812 7.31979 51.535 7.07468C51.3887 6.82956 51.1793 6.62913 50.9291 6.49481ZM1.75085 8.00514C9.23409 3.92456 17.5743 1.76412 25.8765 1.76412C34.1786 1.76412 42.524 3.91936 50.0134 7.99995V8.1154C50.0134 18.1447 50.0134 27.6186 46.983 35.4479C43.6107 44.151 36.9051 49.7971 25.8827 53.213C14.8458 49.7929 8.14019 44.1469 4.7802 35.4479C1.75085 27.6186 1.75085 18.1447 1.75085 8.1154V8.00514Z" fill="#283441"/>
<path d="M37.7273 23.7554V28.5401C37.7273 29.1746 37.4777 29.7831 37.0334 30.2318C36.5891 30.6805 35.9866 30.9325 35.3582 30.9325H30.62V35.7173C30.62 36.3518 30.3704 36.9603 29.9262 37.409C29.4819 37.8576 28.8793 38.1097 28.251 38.1097H23.5128C22.8844 38.1097 22.2818 37.8576 21.8376 37.409C21.3933 36.9603 21.1437 36.3518 21.1437 35.7173V30.9325H16.4055C15.7771 30.9325 15.1746 30.6805 14.7303 30.2318C14.286 29.7831 14.0364 29.1746 14.0364 28.5401V23.7554C14.0364 23.1208 14.286 22.5123 14.7303 22.0637C15.1746 21.615 15.7771 21.363 16.4055 21.363H21.1437V16.5782C21.1437 15.9437 21.3933 15.3352 21.8376 14.8865C22.2818 14.4378 22.8844 14.1858 23.5128 14.1858H28.251C28.8793 14.1858 29.4819 14.4378 29.9262 14.8865C30.3704 15.3352 30.62 15.9437 30.62 16.5782V21.363H35.3582C35.9866 21.363 36.5891 21.615 37.0334 22.0637C37.4777 22.5123 37.7273 23.1208 37.7273 23.7554Z" fill="white"/>
</g>
<defs>
<clipPath id="clip0_190_569">
<rect width="51.7647" height="55" fill="white"/>
</clipPath>
</defs>
</svg>
