<svg width="60" height="60" viewBox="0 0 60 60" fill="none" xmlns="http://www.w3.org/2000/svg">
<g clip-path="url(#clip0_190_573)">
<path d="M57.9824 30C57.9736 35.5035 56.3338 40.8809 53.2702 45.4529C50.2065 50.0248 45.8565 53.5861 40.7697 55.6869C37.3526 57.0889 33.6935 57.8063 30 57.7986C14.6732 57.7986 2.1991 45.3279 2.1991 29.9977C2.1991 22.521 5.07793 15.4981 10.3034 10.2205C12.8747 7.61117 15.9411 5.54137 19.3227 4.13241C22.7043 2.72345 26.3332 2.00368 29.9966 2.01527C37.5528 2.01527 44.6028 4.90316 49.8464 10.149C55.09 15.3949 57.9824 22.4438 57.9824 30Z" fill="#1264D5"/>
<path d="M30 0C13.4579 0 0 13.4579 0 30C0 46.5421 13.4579 60 30 60C46.5421 60 59.9966 46.541 59.9966 30C59.9966 13.459 46.5421 0 30 0ZM49.8498 49.6195C47.2547 52.2221 44.1693 54.2844 40.772 55.6869C37.3549 57.0889 33.6958 57.8063 30.0023 57.7986C14.6755 57.7986 2.20137 45.3279 2.20137 29.9977C2.20137 22.521 5.0802 15.4981 10.3056 10.2205C12.877 7.61118 15.9434 5.54138 19.325 4.13242C22.7066 2.72345 26.3355 2.00368 29.9988 2.01528C37.555 2.01528 44.6051 4.90316 49.8487 10.149C55.0923 15.3949 57.9813 22.4416 57.9813 29.9977C57.9904 33.6435 57.2764 37.2549 55.8807 40.623C54.4849 43.991 52.4351 47.0488 49.8498 49.6195Z" fill="#283441"/>
<path d="M27.7918 13.8017C27.7918 12.5138 28.7121 11.4086 30 11.4086C30.6312 11.4199 31.2333 11.6757 31.6797 12.1221C32.126 12.5684 32.3818 13.1706 32.3932 13.8017V29.0797L38.6512 35.5216C39.5726 36.258 39.5726 37.9147 38.6512 38.6512C38.4344 38.8699 38.1764 39.0435 37.8922 39.162C37.6079 39.2805 37.303 39.3415 36.9951 39.3415C36.6871 39.3415 36.3822 39.2805 36.098 39.162C35.8137 39.0435 35.5557 38.8699 35.3389 38.6512L28.3433 31.8428C27.9757 31.2902 27.608 30.7387 27.608 30.1861L27.7918 13.8017Z" fill="white"/>
</g>
<defs>
<clipPath id="clip0_190_573">
<rect width="60" height="60" fill="white"/>
</clipPath>
</defs>
</svg>
