<svg width="60" height="60" viewBox="0 0 60 60" fill="none" xmlns="http://www.w3.org/2000/svg">
<g clip-path="url(#clip0_190_578)">
<path d="M44.5116 27.0926V32.8967C44.5117 33.2779 44.4368 33.6554 44.291 34.0076C44.1453 34.3599 43.9315 34.68 43.6621 34.9496C43.3926 35.2192 43.0726 35.4331 42.7204 35.579C42.3682 35.7249 41.9907 35.8001 41.6095 35.8001H35.8041V41.6041C35.8043 41.9854 35.7293 42.3629 35.5836 42.7151C35.4378 43.0674 35.2241 43.3874 34.9546 43.6571C34.6851 43.9267 34.3651 44.1406 34.0129 44.2865C33.6607 44.4324 33.2832 44.5075 32.902 44.5075H27.0966C26.7154 44.5075 26.3379 44.4324 25.9857 44.2865C25.6335 44.1406 25.3136 43.9267 25.0441 43.6571C24.7746 43.3874 24.5608 43.0674 24.4151 42.7151C24.2693 42.3629 24.1944 41.9854 24.1945 41.6041V35.8001H18.3891C18.0079 35.8001 17.6304 35.7249 17.2782 35.579C16.926 35.4331 16.6061 35.2192 16.3366 34.9496C16.0671 34.68 15.8533 34.3599 15.7076 34.0076C15.5618 33.6554 15.4869 33.2779 15.4871 32.8967V27.0926C15.4871 26.3228 15.7928 25.5845 16.337 25.04C16.8812 24.4956 17.6193 24.1895 18.3891 24.1892H24.1945V18.3851C24.1945 17.6153 24.5003 16.877 25.0445 16.3326C25.5887 15.7881 26.3268 15.4821 27.0966 15.4817H32.902C33.6718 15.4821 34.41 15.7881 34.9542 16.3326C35.4984 16.877 35.8041 17.6153 35.8041 18.3851V24.1946H41.6095C42.3784 24.195 43.1157 24.5003 43.6597 25.0436C44.2038 25.5868 44.5101 26.3237 44.5116 27.0926Z" fill="#1264D5"/>
<path d="M42 27.6005V32.3996C42.0001 32.7148 41.9382 33.0269 41.8177 33.3182C41.6971 33.6094 41.5204 33.8741 41.2976 34.097C41.0747 34.32 40.8101 34.4968 40.5189 34.6175C40.2277 34.7381 39.9156 34.8002 39.6003 34.8002H34.7999V39.5993C34.8 39.9145 34.7381 40.2267 34.6175 40.5179C34.497 40.8092 34.3203 41.0739 34.0974 41.2968C33.8746 41.5197 33.61 41.6966 33.3188 41.8172C33.0276 41.9379 32.7154 42 32.4002 42H27.5998C27.2846 42 26.9724 41.9379 26.6812 41.8172C26.39 41.6966 26.1254 41.5197 25.9026 41.2968C25.6797 41.0739 25.503 40.8092 25.3825 40.5179C25.2619 40.2267 25.2 39.9145 25.2001 39.5993V34.8002H20.3997C20.0844 34.8002 19.7723 34.7381 19.4811 34.6175C19.1899 34.4968 18.9253 34.32 18.7024 34.097C18.4796 33.8741 18.3029 33.6094 18.1823 33.3182C18.0618 33.0269 17.9999 32.7148 18 32.3996V27.6005C18 26.9639 18.2528 26.3535 18.7028 25.9033C19.1528 25.4531 19.7631 25.2001 20.3997 25.1998H25.2001V20.4007C25.2001 19.7642 25.4529 19.1537 25.9029 18.7035C26.3529 18.2534 26.9632 18.0003 27.5998 18H32.4002C33.0368 18.0003 33.6471 18.2534 34.0971 18.7035C34.5471 19.1537 34.7999 19.7642 34.7999 20.4007V25.2043H39.6003C40.2361 25.2046 40.8458 25.457 41.2956 25.9062C41.7455 26.3554 41.9988 26.9647 42 27.6005Z" fill="white"/>
<path d="M30 0C13.4585 0 0 13.4585 0 30C0 46.5415 13.4585 60 30 60C46.5415 60 60 46.5415 60 30C60 13.4585 46.5415 0 30 0ZM30 58.0503C14.5333 58.0503 1.94965 45.4667 1.94965 30C1.94965 14.5333 14.5333 1.94966 30 1.94966C45.4667 1.94966 58.049 14.5333 58.049 30C58.049 45.4667 45.4667 58.0503 30 58.0503Z" fill="#283441"/>
<path d="M30 1.94971C14.5333 1.94971 1.94965 14.5334 1.94965 30C1.94965 45.4667 14.5333 58.0504 30 58.0504C45.4666 58.0504 58.049 45.4667 58.049 30C58.049 14.5334 45.4666 1.94971 30 1.94971ZM44.5116 32.9021C44.5117 33.2833 44.4368 33.6608 44.291 34.0131C44.1453 34.3653 43.9315 34.6854 43.662 34.955C43.3926 35.2246 43.0726 35.4385 42.7204 35.5845C42.3682 35.7304 41.9907 35.8055 41.6095 35.8055H35.8041V41.6096C35.8043 41.9908 35.7293 42.3683 35.5836 42.7206C35.4378 43.0728 35.2241 43.3929 34.9546 43.6625C34.6851 43.9321 34.3651 44.146 34.0129 44.2919C33.6607 44.4379 33.2832 44.513 32.902 44.513H27.0966C26.7154 44.513 26.3379 44.4379 25.9857 44.2919C25.6335 44.146 25.3135 43.9321 25.0441 43.6625C24.7746 43.3929 24.5608 43.0728 24.4151 42.7206C24.2693 42.3683 24.1944 41.9908 24.1945 41.6096V35.8H18.3891C18.0079 35.8 17.6304 35.7249 17.2782 35.579C16.926 35.4331 16.6061 35.2192 16.3366 34.9496C16.0671 34.6799 15.8533 34.3599 15.7076 34.0076C15.5618 33.6554 15.4869 33.2779 15.4871 32.8966V27.0926C15.4871 26.3228 15.7928 25.5845 16.337 25.04C16.8812 24.4956 17.6193 24.1895 18.3891 24.1892H24.1945V18.3851C24.1945 17.6153 24.5003 16.877 25.0445 16.3325C25.5886 15.7881 26.3268 15.482 27.0966 15.4817H32.902C33.6718 15.482 34.41 15.7881 34.9542 16.3325C35.4984 16.877 35.8041 17.6153 35.8041 18.3851V24.1946H41.6095C42.3784 24.195 43.1157 24.5003 43.6597 25.0435C44.2038 25.5868 44.5101 26.3237 44.5116 27.0926V32.9021Z" fill="#1264D5"/>
</g>
<defs>
<clipPath id="clip0_190_578">
<rect width="60" height="60" fill="white"/>
</clipPath>
</defs>
</svg>
