<svg width="50" height="59" viewBox="0 0 50 59" fill="none" xmlns="http://www.w3.org/2000/svg">
<g clip-path="url(#clip0_190_583)">
<path d="M36.4806 1.47217L34.1945 11.9151L33.8113 11.7747C28.1376 9.66393 21.8695 9.66393 16.1957 11.7747L15.8126 11.9162L13.5276 1.47332L36.4806 1.47217Z" fill="white"/>
<path d="M25.0006 11.5481C12.0454 11.5481 1.50568 21.8622 1.50568 34.5385C1.50568 47.2149 12.0454 57.5278 25.0006 57.5278C37.9558 57.5278 48.4955 47.2149 48.4955 34.5385C48.4955 21.8622 37.9558 11.5481 25.0006 11.5481ZM32.7417 35.1907C32.7431 35.2313 32.7358 35.2717 32.7202 35.3093C32.7046 35.347 32.6811 35.381 32.6512 35.4092C32.6184 35.4406 32.5791 35.4648 32.5359 35.48C32.4927 35.4953 32.4466 35.5014 32.4009 35.4977H24.4L24.3353 35.5242C23.9827 35.6656 23.7206 35.7807 23.502 35.8842C22.7427 36.2361 22.209 36.6053 21.8846 37.0066C21.5264 37.4365 21.339 37.9785 21.3569 38.5328C21.3569 39.3678 21.6742 40.0279 22.2972 40.488C22.8943 40.9308 23.7229 41.1562 24.7655 41.1562C25.5119 41.1562 26.1372 41.055 26.6226 40.8572H26.6344C27.4376 40.5048 28.084 39.8808 28.4551 39.0998C28.5444 39.0007 28.6406 38.9077 28.743 38.8215C28.8406 38.7618 28.955 38.734 29.0698 38.7421H32.04C32.0689 38.7409 32.0976 38.7466 32.1237 38.7589C32.1497 38.7711 32.1723 38.7895 32.1893 38.8123L32.2281 38.8491C32.2986 38.9089 32.2986 38.9469 32.2986 38.9641C32.2728 39.8355 31.975 40.6783 31.4453 41.3793C30.9105 42.1384 30.09 42.7652 29.0052 43.2448C27.9203 43.7244 26.5486 43.9739 24.9042 43.9739C23.5889 43.9739 22.403 43.7554 21.378 43.3253C20.43 42.9282 19.6006 42.3022 18.9673 41.5058C18.3934 40.7069 18.0952 39.7495 18.1163 38.7732C18.1163 37.921 18.3032 37.2068 18.6735 36.6467C18.9145 36.2852 19.2152 35.9653 19.5632 35.7001L20.3413 35.086H17.598C17.552 35.0902 17.5056 35.0845 17.4621 35.0692C17.4186 35.0539 17.3791 35.0294 17.3465 34.9974C17.3138 34.9654 17.2887 34.9268 17.2731 34.8843C17.2574 34.8417 17.2516 34.7963 17.2559 34.7513V33.8818C17.2518 33.8369 17.2577 33.7916 17.2735 33.7492C17.2892 33.7068 17.3143 33.6684 17.347 33.6365C17.3796 33.6047 17.419 33.5803 17.4624 33.565C17.5058 33.5498 17.5521 33.5441 17.598 33.5483H24.4446L24.5058 33.5253C25.1828 33.2757 25.7235 33.0595 26.1619 32.8629C26.9153 32.5178 27.4548 32.1578 27.8004 31.776C28.1891 31.3566 28.3993 30.8078 28.3881 30.2418C28.3881 29.4632 28.1189 28.8686 27.5876 28.4752C27.0998 28.0842 26.4381 27.8852 25.62 27.8852C24.6327 27.8852 23.8146 28.0761 23.194 28.4488C22.5734 28.8214 22.1362 29.2895 21.9375 29.8783C21.8839 29.9688 21.8069 30.0438 21.7142 30.0957C21.6072 30.1459 21.4896 30.1707 21.371 30.1682H18.2621C18.2333 30.17 18.2044 30.1662 18.1771 30.1569C18.1499 30.1476 18.1248 30.1331 18.1034 30.1141C18.0584 30.0677 18.0324 30.0067 18.0305 29.9427C18.0452 29.3913 18.2012 28.8523 18.4842 28.3752C18.86 27.7647 19.3477 27.2274 19.9229 26.7903C20.6448 26.2546 21.4539 25.8417 22.316 25.5689C23.3845 25.24 24.5 25.0809 25.62 25.0974C26.893 25.0974 27.9896 25.3148 28.8853 25.7437C29.7095 26.1024 30.4121 26.6837 30.9105 27.4194C31.3901 28.116 31.64 28.9397 31.6263 29.7794C31.6263 30.7179 31.4229 31.4839 31.0186 32.0624C30.6633 32.5691 30.2037 32.9977 29.6693 33.3206L28.6619 33.9555H32.3962C32.442 33.9517 32.4882 33.9578 32.5314 33.9733C32.5747 33.9888 32.6139 34.0133 32.6465 34.0451C32.6786 34.0773 32.7033 34.1158 32.719 34.158C32.7346 34.2003 32.7407 34.2453 32.737 34.2901L32.7417 35.1907Z" fill="#1264D5"/>
<path d="M45.9812 21.2538C45.3573 20.3135 44.6681 19.4162 43.9184 18.5683C43.1683 17.7194 42.3606 16.9209 41.5006 16.1784C39.7786 14.6962 37.8574 13.4514 35.7906 12.4786L35.6237 12.4003L38.1273 0.959177C38.1523 0.843516 38.1506 0.72387 38.1223 0.608925C38.0941 0.493981 38.04 0.386649 37.964 0.294755C37.888 0.202861 37.792 0.128711 37.6829 0.0777214C37.5739 0.0267319 37.4547 0.000178144 37.3339 0H12.6659C12.5451 0.00031291 12.4258 0.0270125 12.3169 0.0781426C12.2079 0.129273 12.112 0.20356 12.0361 0.295569C11.9602 0.387578 11.9062 0.494988 11.8781 0.609992C11.85 0.724997 11.8485 0.844681 11.8737 0.960329L14.3761 12.4003L14.2092 12.4786C10.0546 14.4345 6.52932 17.4701 4.01855 21.2538C1.39166 25.2075 -0.00448644 29.8228 -0.000111821 34.5386C-0.000111821 48.0269 11.2143 59 25.0005 59C38.7866 59 49.9975 48.0269 49.9975 34.5386C50.0033 29.823 48.6079 25.2074 45.9812 21.2538ZM48.3778 34.5386C48.3778 47.1517 37.8898 57.4129 25.0005 57.4129C12.1111 57.4129 1.6231 47.1517 1.6231 34.5386C1.6231 21.9254 12.1099 11.6631 25.0005 11.6631C37.891 11.6631 48.3778 21.9254 48.3778 34.5386ZM34.1039 11.7609L33.8488 11.6677C28.1482 9.54694 21.8504 9.54694 16.1498 11.6677L15.8947 11.762L13.6685 1.58943H36.3312L34.1039 11.7609Z" fill="#283441"/>
<path d="M32.7417 34.2948V35.1907C32.7431 35.2313 32.7358 35.2718 32.7202 35.3094C32.7046 35.347 32.6811 35.3811 32.6512 35.4092C32.6184 35.4407 32.579 35.4648 32.5359 35.4801C32.4927 35.4954 32.4466 35.5014 32.4009 35.4978H24.4L24.3353 35.5243C23.9827 35.6657 23.7206 35.7807 23.502 35.8843C22.7426 36.2362 22.209 36.6053 21.8846 37.0067C21.5264 37.4366 21.339 37.9786 21.3569 38.5329C21.3569 39.3679 21.6742 40.028 22.2972 40.4881C22.8943 40.9309 23.7229 41.1563 24.7655 41.1563C25.5119 41.1563 26.1372 41.0551 26.6226 40.8573H26.6344C27.4375 40.5048 28.0839 39.8809 28.4551 39.0999C28.5444 39.0008 28.6406 38.9078 28.743 38.8216C28.8406 38.7618 28.955 38.7341 29.0698 38.7422H32.04C32.0689 38.741 32.0976 38.7467 32.1236 38.759C32.1497 38.7712 32.1722 38.7896 32.1893 38.8124L32.2281 38.8492C32.2986 38.909 32.2986 38.9469 32.2986 38.9642C32.2728 39.8356 31.975 40.6784 31.4453 41.3794C30.9105 42.1385 30.09 42.7653 29.0051 43.2449C27.9203 43.7245 26.5486 43.974 24.9042 43.974C23.5889 43.974 22.403 43.7555 21.378 43.3254C20.43 42.9283 19.6005 42.3023 18.9673 41.5059C18.3933 40.707 18.0952 39.7496 18.1163 38.7733C18.1163 37.9211 18.3032 37.2069 18.6734 36.6468C18.9145 36.2853 19.2152 35.9654 19.5632 35.7002L20.3413 35.0861H17.598C17.552 35.0903 17.5056 35.0846 17.4621 35.0693C17.4186 35.054 17.3791 35.0295 17.3464 34.9975C17.3138 34.9655 17.2887 34.9269 17.2731 34.8843C17.2574 34.8418 17.2516 34.7964 17.2559 34.7514V33.8819C17.2517 33.837 17.2577 33.7917 17.2735 33.7493C17.2892 33.7069 17.3143 33.6684 17.3469 33.6366C17.3796 33.6048 17.419 33.5803 17.4624 33.5651C17.5058 33.5499 17.5521 33.5442 17.598 33.5484H24.4446L24.5057 33.5254C25.1828 33.2758 25.7234 33.0596 26.1619 32.8629C26.9153 32.5179 27.4548 32.1579 27.8004 31.7761C28.1891 31.3567 28.3993 30.8079 28.3881 30.2419C28.3881 29.4633 28.1189 28.8686 27.5876 28.4753C27.0998 28.0843 26.4381 27.8853 25.62 27.8853C24.6327 27.8853 23.8146 28.0762 23.194 28.4489C22.5734 28.8215 22.1362 29.2896 21.9375 29.8784C21.8839 29.9689 21.8069 30.0439 21.7142 30.0958C21.6072 30.1459 21.4896 30.1707 21.371 30.1682H18.2621C18.2333 30.1701 18.2044 30.1663 18.1771 30.157C18.1498 30.1477 18.1248 30.1332 18.1034 30.1142C18.0584 30.0678 18.0324 30.0068 18.0305 29.9428C18.0452 29.3914 18.2012 28.8524 18.4842 28.3753C18.86 27.7648 19.3477 27.2275 19.9229 26.7904C20.6448 26.2547 21.4539 25.8418 22.316 25.569C23.3845 25.2401 24.5 25.0809 25.62 25.0975C26.893 25.0975 27.9896 25.3148 28.8853 25.7438C29.7095 26.1025 30.4121 26.6838 30.9104 27.4195C31.3901 28.116 31.64 28.9397 31.6263 29.7795C31.6263 30.718 31.4229 31.484 31.0186 32.0625C30.6633 32.5692 30.2037 32.9978 29.6692 33.3207L28.6619 33.9555H32.3961C32.442 33.9518 32.4882 33.9579 32.5314 33.9734C32.5747 33.9889 32.6139 34.0134 32.6465 34.0452C32.6801 34.0774 32.706 34.1165 32.7225 34.1596C32.7389 34.2028 32.7455 34.2489 32.7417 34.2948Z" fill="#1264D5"/>
<path d="M32.7417 34.2948V35.1907C32.7431 35.2313 32.7358 35.2718 32.7202 35.3094C32.7046 35.347 32.6811 35.3811 32.6512 35.4092C32.6184 35.4407 32.579 35.4648 32.5359 35.4801C32.4927 35.4954 32.4466 35.5014 32.4009 35.4978H24.4L24.3353 35.5243C23.9827 35.6657 23.7206 35.7807 23.502 35.8843C22.7426 36.2362 22.209 36.6053 21.8846 37.0067C21.5264 37.4366 21.339 37.9786 21.3569 38.5329C21.3569 39.3679 21.6742 40.028 22.2972 40.4881C22.8943 40.9309 23.7229 41.1563 24.7655 41.1563C25.5119 41.1563 26.1372 41.0551 26.6226 40.8573H26.6344C27.4375 40.5048 28.0839 39.8809 28.4551 39.0999C28.5444 39.0008 28.6406 38.9078 28.743 38.8216C28.8406 38.7618 28.955 38.7341 29.0698 38.7422H32.04C32.0689 38.741 32.0976 38.7467 32.1236 38.759C32.1497 38.7712 32.1722 38.7896 32.1893 38.8124L32.2281 38.8492C32.2986 38.909 32.2986 38.9469 32.2986 38.9642C32.2728 39.8356 31.975 40.6784 31.4453 41.3794C30.9105 42.1385 30.09 42.7653 29.0051 43.2449C27.9203 43.7245 26.5486 43.974 24.9042 43.974C23.5889 43.974 22.403 43.7555 21.378 43.3254C20.43 42.9283 19.6005 42.3023 18.9673 41.5059C18.3933 40.707 18.0952 39.7496 18.1163 38.7733C18.1163 37.9211 18.3032 37.2069 18.6734 36.6468C18.9145 36.2853 19.2152 35.9654 19.5632 35.7002L20.3413 35.0861H17.598C17.552 35.0903 17.5056 35.0846 17.4621 35.0693C17.4186 35.054 17.3791 35.0295 17.3464 34.9975C17.3138 34.9655 17.2887 34.9269 17.2731 34.8843C17.2574 34.8418 17.2516 34.7964 17.2559 34.7514V33.8819C17.2517 33.837 17.2577 33.7917 17.2735 33.7493C17.2892 33.7069 17.3143 33.6684 17.3469 33.6366C17.3796 33.6048 17.419 33.5803 17.4624 33.5651C17.5058 33.5499 17.5521 33.5442 17.598 33.5484H24.4446L24.5057 33.5254C25.1828 33.2758 25.7234 33.0596 26.1619 32.8629C26.9153 32.5179 27.4548 32.1579 27.8004 31.7761C28.1891 31.3567 28.3993 30.8079 28.3881 30.2419C28.3881 29.4633 28.1189 28.8686 27.5876 28.4753C27.0998 28.0843 26.4381 27.8853 25.62 27.8853C24.6327 27.8853 23.8146 28.0762 23.194 28.4489C22.5734 28.8215 22.1362 29.2896 21.9375 29.8784C21.8839 29.9689 21.8069 30.0439 21.7142 30.0958C21.6072 30.1459 21.4896 30.1707 21.371 30.1682H18.2621C18.2333 30.1701 18.2044 30.1663 18.1771 30.157C18.1498 30.1477 18.1248 30.1332 18.1034 30.1142C18.0584 30.0678 18.0324 30.0068 18.0305 29.9428C18.0452 29.3914 18.2012 28.8524 18.4842 28.3753C18.86 27.7648 19.3477 27.2275 19.9229 26.7904C20.6448 26.2547 21.4539 25.8418 22.316 25.569C23.3845 25.2401 24.5 25.0809 25.62 25.0975C26.893 25.0975 27.9896 25.3148 28.8853 25.7438C29.7095 26.1025 30.4121 26.6838 30.9104 27.4195C31.3901 28.116 31.64 28.9397 31.6263 29.7795C31.6263 30.718 31.4229 31.484 31.0186 32.0625C30.6633 32.5692 30.2037 32.9978 29.6692 33.3207L28.6619 33.9555H32.3961C32.442 33.9518 32.4882 33.9579 32.5314 33.9734C32.5747 33.9889 32.6139 34.0134 32.6465 34.0452C32.6801 34.0774 32.706 34.1165 32.7225 34.1596C32.7389 34.2028 32.7455 34.2489 32.7417 34.2948Z" fill="white"/>
</g>
<defs>
<clipPath id="clip0_190_583">
<rect width="50" height="59" fill="white"/>
</clipPath>
</defs>
</svg>
