<svg width="43" height="60" viewBox="0 0 43 60" fill="none" xmlns="http://www.w3.org/2000/svg">
<g id="&#195;&#144;&#194;&#161;&#195;&#144;&#194;&#187;&#195;&#144;&#194;&#190;&#195;&#144;&#194;&#185;_1" clip-path="url(#clip0_190_528)">
<path id="Rectangle 40" d="M9.81818 18.5454H32.7273V25.9091C32.7273 30.8796 28.6978 34.909 23.7273 34.909H18.8182C13.8476 34.909 9.81818 30.8796 9.81818 25.909V18.5454Z" fill="white"/>
<path id="Vector" d="M32.1033 7.04762V17.1272H10.4435V7.04762L21.2727 1.7489L32.1033 7.04762Z" fill="#1264D5"/>
<path id="Vector_2" d="M33.3264 5.79648L21.6517 0.0883115C21.5341 0.0305633 21.4043 0.00033177 21.2727 0C21.1418 0.000645516 21.0127 0.0303844 20.8952 0.0869731L9.22047 5.79782C9.08041 5.86648 8.96269 5.97196 8.88053 6.10243C8.79837 6.2329 8.75501 6.38319 8.75534 6.53643V23.6636C8.75534 25.2714 9.07911 26.8635 9.70817 28.3489C10.3372 29.8343 11.2593 31.184 12.4216 32.3209C13.584 33.4578 14.9639 34.3596 16.4825 34.9749C18.0012 35.5902 19.6289 35.9069 21.2727 35.9069C22.9165 35.9069 24.5442 35.5902 26.0629 34.9749C27.5816 34.3596 28.9615 33.4578 30.1239 32.3209C31.2862 31.184 32.2082 29.8343 32.8373 28.3489C33.4664 26.8635 33.7901 25.2714 33.7901 23.6636V6.53643C33.791 6.38307 33.748 6.23254 33.6661 6.10179C33.5842 5.97105 33.4665 5.8653 33.3264 5.79648ZM32.1034 23.6609C32.1195 25.062 31.8512 26.4523 31.3142 27.7513C30.7772 29.0503 29.982 30.2321 28.9747 31.2285C27.9675 32.2248 26.7682 33.0158 25.4462 33.5556C24.1243 34.0954 22.706 34.3734 21.2734 34.3734C19.8409 34.3734 18.4226 34.0954 17.1006 33.5556C15.7787 33.0158 14.5793 32.2248 13.5721 31.2285C12.5648 30.2321 11.7697 29.0503 11.2327 27.7513C10.6956 26.4523 10.4274 25.062 10.4435 23.6609V18.777H32.1034V23.6609ZM32.1034 17.1272H10.4435V7.04757L21.2727 1.74885L32.1034 7.04757V17.1272Z" fill="#283441"/>
<path id="Vector_3" d="M42.5427 57.7722V57.7454C42.4538 49.2942 36.2334 41.9563 27.7517 40.3078C27.5956 40.2781 27.4342 40.2922 27.286 40.3486C27.1378 40.405 27.009 40.5012 26.9145 40.6263L21.2727 47.9776L15.6324 40.6182C15.5537 40.5162 15.4517 40.4334 15.3347 40.3765C15.2176 40.3196 15.0887 40.2901 14.958 40.2904C14.9042 40.2902 14.8505 40.2956 14.7979 40.3065C6.31616 41.9563 0.093036 49.2915 0.00274658 57.7481C0.00274658 57.8163 0.00274658 57.8672 0.00274658 57.9154V59.6655C0.00274658 59.7543 0.03878 59.8393 0.102918 59.9021C0.167057 59.9648 0.254046 60.0001 0.344752 60.0001H42.2062C42.2969 60.0001 42.3839 59.9648 42.448 59.9021C42.5122 59.8393 42.5482 59.7543 42.5482 59.6655V57.9154C42.5455 57.8685 42.5455 57.819 42.5427 57.7722ZM1.68404 58.3435V57.7347C1.73466 54.1529 2.98575 50.6863 5.24526 47.8672C7.50478 45.048 10.6478 43.0321 14.1919 42.1289L14.5927 42.0285L20.5846 49.8415C20.6182 49.88 20.6553 49.9154 20.6954 49.9472C20.8787 50.092 21.1124 50.1611 21.347 50.1398C21.5815 50.1186 21.7983 50.0087 21.9513 49.8335L27.9432 42.0285L28.344 42.1289C31.8888 43.0313 35.0328 45.0469 37.2931 47.8662C39.5534 50.6854 40.8051 54.1524 40.856 57.7347V58.3435H1.68404Z" fill="#283441"/>
<path id="Vector_4" d="M40.8628 58.3435H1.68404V57.7347C1.73465 54.1529 2.98575 50.6863 5.24526 47.8672C7.50477 45.048 10.6478 43.0321 14.1919 42.1289L14.5927 42.0286L20.5846 49.8415C20.6182 49.88 20.6552 49.9154 20.6954 49.9472C20.8787 50.092 21.1124 50.1611 21.347 50.1398C21.5815 50.1186 21.7983 50.0087 21.9513 49.8335L27.9432 42.0286L28.344 42.1289C31.8888 43.0314 35.0328 45.0469 37.2931 47.8662C39.5534 50.6854 40.8051 54.1524 40.856 57.7347L40.8628 58.3435Z" fill="#1264D5"/>
<path id="Vector_5" d="M24.1921 7.9615H22.7324V6.53379C22.7208 6.16288 22.562 5.81096 22.2896 5.55261C22.0173 5.29426 21.6528 5.14978 21.2734 5.14978C20.894 5.14978 20.5295 5.29426 20.2572 5.55261C19.9848 5.81096 19.826 6.16288 19.8144 6.53379V7.9615H18.3547C18.1594 7.95565 17.9648 7.98823 17.7826 8.05731C17.6003 8.1264 17.4341 8.23057 17.2938 8.36367C17.1535 8.49676 17.042 8.65605 16.9658 8.8321C16.8896 9.00815 16.8504 9.19737 16.8504 9.38854C16.8504 9.57971 16.8896 9.76893 16.9658 9.94498C17.042 10.121 17.1535 10.2803 17.2938 10.4134C17.4341 10.5465 17.6003 10.6507 17.7826 10.7198C17.9648 10.7889 18.1594 10.8214 18.3547 10.8156H19.8144V12.2433C19.8084 12.4344 19.8417 12.6247 19.9124 12.8029C19.983 12.9812 20.0895 13.1437 20.2256 13.281C20.3617 13.4182 20.5245 13.5273 20.7045 13.6018C20.8845 13.6763 21.078 13.7147 21.2734 13.7147C21.4689 13.7147 21.6623 13.6763 21.8423 13.6018C22.0223 13.5273 22.1852 13.4182 22.3212 13.281C22.4573 13.1437 22.5638 12.9812 22.6345 12.8029C22.7051 12.6247 22.7384 12.4344 22.7324 12.2433V10.8156H24.1921C24.5713 10.8042 24.9311 10.6489 25.1952 10.3825C25.4594 10.1161 25.6071 9.75963 25.6071 9.38854C25.6071 9.01746 25.4594 8.66095 25.1952 8.39457C24.9311 8.12819 24.5713 7.97286 24.1921 7.9615Z" fill="white"/>
</g>
<defs>
<clipPath id="clip0_190_528">
<rect width="42.5455" height="60" fill="white"/>
</clipPath>
</defs>
</svg>
