<svg width="32" height="30" viewBox="0 0 32 30" fill="none" xmlns="http://www.w3.org/2000/svg">
<path d="M24.9929 6.85714V7.00714H25.1429H28.5714C29.441 7.00714 30.2749 7.35256 30.8897 7.96741C31.5046 8.58226 31.85 9.41618 31.85 10.2857V26.2857C31.85 27.1552 31.5046 27.9892 30.8897 28.604C30.2749 29.2189 29.441 29.5643 28.5714 29.5643H3.42857C2.55904 29.5643 1.72512 29.2189 1.11027 28.604C0.49542 27.9892 0.15 27.1552 0.15 26.2857V10.2857C0.15 9.41618 0.49542 8.58226 1.11027 7.96741C1.72512 7.35256 2.55904 7.00714 3.42857 7.00714H6.85714H7.00714V6.85714V3.42857C7.00714 2.55904 7.35256 1.72512 7.96741 1.11027C8.58226 0.49542 9.41618 0.15 10.2857 0.15H21.7143C22.5838 0.15 23.4177 0.49542 24.0326 1.11027C24.6474 1.72512 24.9929 2.55904 24.9929 3.42857V6.85714ZM22.8571 7.00714H23.0071V6.85714V3.42857C23.0071 3.08568 22.8709 2.75684 22.6285 2.51438C22.386 2.27193 22.0572 2.13571 21.7143 2.13571H10.2857C9.94283 2.13571 9.61399 2.27193 9.37153 2.51438C9.12907 2.75684 8.99286 3.08568 8.99286 3.42857V6.85714V7.00714H9.14286H22.8571ZM29.4856 27.1999C29.7281 26.9574 29.8643 26.6286 29.8643 26.2857V10.2857C29.8643 9.94283 29.7281 9.61398 29.4856 9.37153C29.2432 9.12907 28.9143 8.99286 28.5714 8.99286H3.42857C3.08568 8.99286 2.75684 9.12907 2.51438 9.37153C2.27193 9.61398 2.13571 9.94283 2.13571 10.2857V26.2857C2.13571 26.6286 2.27193 26.9574 2.51438 27.1999C2.75684 27.4424 3.08568 27.5786 3.42857 27.5786H28.5714C28.9143 27.5786 29.2432 27.4424 29.4856 27.1999Z" fill="white" stroke="#1264D5" stroke-width="0.3"/>
<path d="M16.993 17.1429V17.2929H17.143H19.4287C19.692 17.2929 19.9446 17.3975 20.1308 17.5837C20.317 17.7699 20.4216 18.0225 20.4216 18.2858C20.4216 18.5491 20.317 18.8016 20.1308 18.9878C19.9446 19.174 19.692 19.2786 19.4287 19.2786H17.143H16.993V19.4286V21.7144C16.993 21.9777 16.8884 22.2302 16.7022 22.4164C16.516 22.6026 16.2635 22.7072 16.0001 22.7072C15.7368 22.7072 15.4843 22.6026 15.2981 22.4164C15.1119 22.2302 15.0073 21.9777 15.0073 21.7144V19.4286V19.2786H14.8573H12.5716C12.3082 19.2786 12.0557 19.174 11.8695 18.9878C11.6833 18.8016 11.5787 18.5491 11.5787 18.2858C11.5787 18.0225 11.6833 17.7699 11.8695 17.5837C12.0557 17.3975 12.3082 17.2929 12.5716 17.2929H14.8573H15.0073V17.1429V14.8572C15.0073 14.5939 15.1119 14.3414 15.2981 14.1552C15.4843 13.969 15.7368 13.8644 16.0001 13.8644C16.2635 13.8644 16.516 13.969 16.7022 14.1552C16.8884 14.3414 16.993 14.5939 16.993 14.8572V17.1429Z" fill="white" stroke="#1264D5" stroke-width="0.3"/>
</svg>
