<svg width="69" height="32" viewBox="0 0 69 32" fill="none" xmlns="http://www.w3.org/2000/svg">
<rect width="69" height="32" rx="16" fill="#1264D5"/>
<path d="M16.428 20.5C16.3347 20.5 16.2553 20.4673 16.19 20.402C16.1247 20.3367 16.092 20.2573 16.092 20.164V11.05C16.092 10.9473 16.1247 10.8633 16.19 10.798C16.2553 10.7327 16.3347 10.7 16.428 10.7H20.054C21.1833 10.7 22.0747 10.9613 22.728 11.484C23.3813 12.0067 23.708 12.7673 23.708 13.766C23.708 14.4567 23.5353 15.0307 23.19 15.488C22.854 15.9453 22.4013 16.2767 21.832 16.482L23.876 20.052C23.904 20.108 23.918 20.1593 23.918 20.206C23.918 20.29 23.8853 20.36 23.82 20.416C23.764 20.472 23.6987 20.5 23.624 20.5H22.35C22.1913 20.5 22.07 20.458 21.986 20.374C21.902 20.29 21.8367 20.206 21.79 20.122L19.984 16.804H18.038V20.164C18.038 20.2573 18.0053 20.3367 17.94 20.402C17.884 20.4673 17.8047 20.5 17.702 20.5H16.428ZM18.038 15.222H20.012C20.5813 15.222 21.006 15.096 21.286 14.844C21.566 14.5827 21.706 14.2187 21.706 13.752C21.706 13.2853 21.566 12.9213 21.286 12.66C21.0153 12.3893 20.5907 12.254 20.012 12.254H18.038V15.222ZM29.4179 20.64C28.6059 20.64 27.9013 20.5047 27.3039 20.234C26.7066 19.954 26.2446 19.5293 25.9179 18.96C25.5913 18.3813 25.4279 17.644 25.4279 16.748V11.05C25.4279 10.9473 25.4606 10.8633 25.5259 10.798C25.5913 10.7327 25.6706 10.7 25.7639 10.7H27.0379C27.1406 10.7 27.2199 10.7327 27.2759 10.798C27.3413 10.8633 27.3739 10.9473 27.3739 11.05V16.748C27.3739 17.5133 27.5559 18.0827 27.9199 18.456C28.2839 18.82 28.7833 19.002 29.4179 19.002C30.0526 19.002 30.5473 18.82 30.9019 18.456C31.2659 18.0827 31.4479 17.5133 31.4479 16.748V11.05C31.4479 10.9473 31.4806 10.8633 31.5459 10.798C31.6113 10.7327 31.6953 10.7 31.7979 10.7H33.0579C33.1606 10.7 33.2399 10.7327 33.2959 10.798C33.3613 10.8633 33.3939 10.9473 33.3939 11.05V16.748C33.3939 17.644 33.2306 18.3813 32.9039 18.96C32.5866 19.5293 32.1293 19.954 31.5319 20.234C30.9439 20.5047 30.2393 20.64 29.4179 20.64Z" fill="white"/>
<path d="M43 14L46.2929 17.2929C46.6834 17.6834 47.3166 17.6834 47.7071 17.2929L51 14" stroke="white" stroke-width="2" stroke-linecap="round"/>
</svg>
