<svg width="150" height="30" viewBox="0 0 150 30" fill="none" xmlns="http://www.w3.org/2000/svg">
<g clip-path="url(#clip0_461_3273)">
<path d="M15.3363 30C19.3603 30.0448 23.2374 28.49 26.1154 25.6772C28.9933 22.8644 30.6366 19.0239 30.6839 15C30.6366 10.976 28.9933 7.13554 26.1154 4.32275C23.2374 1.50997 19.3603 -0.0448917 15.3363 -3.21528e-05C11.3143 -0.0418995 7.44005 1.51429 4.56453 4.32675C1.68901 7.13921 0.0473125 10.978 0 15C0.0473125 19.0219 1.68901 22.8607 4.56453 25.6732C7.44005 28.4856 11.3143 30.0418 15.3363 30Z" fill="#1264D5"/>
<path d="M9.34976 18.9685C9.87495 18.9575 10.3852 18.7917 10.8165 18.4919C11.2479 18.1921 11.5811 17.7716 11.7745 17.2832C11.9679 16.7948 12.0128 16.2602 11.9036 15.7463C11.7944 15.2325 11.536 14.7624 11.1607 14.3948C10.7854 14.0272 10.31 13.7786 9.79397 13.6801C9.27799 13.5816 8.74441 13.6377 8.26012 13.8411C7.77584 14.0446 7.36239 14.3865 7.07162 14.824C6.78084 15.2615 6.62567 15.7751 6.62555 16.3004C6.62847 16.6547 6.70134 17.0049 6.83998 17.331C6.97861 17.657 7.18027 17.9525 7.43339 18.2004C7.68651 18.4483 7.9861 18.6438 8.31496 18.7756C8.64383 18.9074 8.99549 18.973 9.34976 18.9685Z" fill="white"/>
<path d="M17.6794 15.7289C18.727 15.7046 19.7442 15.3718 20.6035 14.7721C21.4628 14.1724 22.1262 13.3325 22.5104 12.3576C22.8946 11.3827 22.9826 10.3161 22.7634 9.29135C22.5442 8.26663 22.0276 7.32936 21.2781 6.59692C20.5287 5.86447 19.5799 5.36942 18.5504 5.17374C17.521 4.97807 16.4566 5.09048 15.4908 5.4969C14.5249 5.90331 13.7004 6.58567 13.1205 7.45851C12.5407 8.33135 12.2312 9.35587 12.231 10.4038C12.2383 11.1114 12.3851 11.8106 12.663 12.4614C12.9409 13.1123 13.3445 13.7019 13.8506 14.1965C14.3567 14.6911 14.9554 15.0811 15.6124 15.344C16.2694 15.607 16.9718 15.7378 17.6794 15.7289Z" fill="white"/>
<path d="M16.5807 25.2242C17.3061 25.2066 18.0102 24.9754 18.6048 24.5595C19.1995 24.1436 19.6582 23.5616 19.9237 22.8863C20.1891 22.211 20.2495 21.4724 20.0972 20.7629C19.9449 20.0535 19.5868 19.4047 19.0676 18.8978C18.5483 18.3909 17.8911 18.0484 17.1782 17.9132C16.4653 17.778 15.7284 17.8561 15.0596 18.1377C14.3909 18.4193 13.82 18.8919 13.4186 19.4964C13.0171 20.1008 12.8029 20.8103 12.8027 21.5359C12.8085 22.0261 12.9109 22.5104 13.1039 22.9611C13.297 23.4118 13.5769 23.8201 13.9277 24.1626C14.2786 24.5051 14.6934 24.7751 15.1486 24.9573C15.6038 25.1394 16.0904 25.2301 16.5807 25.2242Z" fill="white"/>
<path d="M54.7197 11.6703V26.2443H51.0762V22.5672H42.0067V26.2107H38.3632V11.6367C38.4076 10.3567 38.7615 9.10654 39.3946 7.99321C40.3587 6.36764 42.3879 4.40576 46.5247 4.40576C50.6614 4.40576 52.6906 6.36764 53.6547 8.02684C54.3077 9.13365 54.6738 10.3861 54.7197 11.6703ZM51.0762 18.9573V11.6928C51.0186 11.0277 50.8034 10.3859 50.4484 9.82056C49.6973 8.69948 48.4193 8.10531 46.491 8.10531C44.5628 8.10531 43.2511 8.69948 42.6009 9.82056C42.2958 10.3773 42.1123 10.9925 42.0628 11.6255V18.9125L51.0762 18.9573Z" fill="#1264D5"/>
<path d="M82.1301 26.2107H78.4754V12.7577L72.2086 26.2107H68.8453L62.1189 12.5335V26.2107H58.4866V4.3833H62.1973L70.4821 21.3564L78.4754 4.3833H82.1861L82.1301 26.2107Z" fill="#1264D5"/>
<path d="M89.4283 4.40576L93.0494 14.7533L96.9059 4.40576H100.774L92.3206 26.2107H88.565L91.1211 19.417L85.2579 4.40576H89.4283Z" fill="#1264D5"/>
<path d="M107.758 13.0379L102.993 26.2106H99.0695L107.758 3.78906L116.48 26.2106H112.556L107.758 13.0379Z" fill="#1264D5"/>
<path d="M123.061 8.04926V13.5089H132.13V17.1188H123.061V22.5672H133.957V26.2107H119.383V4.40576H133.957V8.04926H123.061Z" fill="#1264D5"/>
<path d="M149.103 7.74653H144.619V26.2107H141.009V7.74653H136.435V4.3833H149.103V7.74653Z" fill="#1264D5"/>
</g>
<defs>
<clipPath id="clip0_461_3273">
<rect width="149.148" height="30" fill="white"/>
</clipPath>
</defs>
</svg>
