<svg width="80" height="80" viewBox="0 0 80 80" fill="none" xmlns="http://www.w3.org/2000/svg">
<circle cx="40" cy="40" r="40" fill="#E9F5FF"/>
<path d="M40 21C34.766 21 30.5078 25.2582 30.5078 30.4922C30.5078 35.7262 34.766 39.9844 40 39.9844C45.234 39.9844 49.4922 35.7262 49.4922 30.4922C49.4922 25.2582 45.234 21 40 21ZM51.8101 46.1856C49.2114 43.5469 45.7663 42.0938 42.1094 42.0938H37.8906C34.2338 42.0938 30.7886 43.5469 28.1899 46.1856C25.6039 48.8113 24.1797 52.2773 24.1797 55.9453C24.1797 56.5278 24.6519 57 25.2344 57H54.7656C55.3481 57 55.8203 56.5278 55.8203 55.9453C55.8203 52.2773 54.3961 48.8113 51.8101 46.1856Z" fill="#1264D5"/>
</svg>
