<svg width="32" height="32" viewBox="0 0 32 32" fill="none" xmlns="http://www.w3.org/2000/svg">
<g clip-path="url(#clip0_174_1116)">
<path d="M30.2787 3.95195L27.2232 0.803824C25.9675 -0.267738 24.7118 -0.267738 23.4562 0.803824C22.4911 1.7982 22.4235 3.37195 23.2522 4.44832L20.0622 7.7352L16.8069 4.3812C16.4571 4.02082 15.8898 4.02082 15.5398 4.3812C15.1898 4.74182 15.1898 5.3262 15.5398 5.68657L16.573 6.75107L3.87354 19.8353C3.76925 19.9427 3.69232 20.075 3.64958 20.2205C3.60684 20.3659 3.59961 20.52 3.62853 20.669L4.64534 25.9085L0.262286 30.4244C-0.0874288 30.7848 -0.0874288 31.3693 0.262286 31.7299C0.684795 32.0902 1.10706 32.0902 1.52933 31.7299L5.91238 27.214L10.9978 28.2618C11.2878 28.3202 11.5577 28.2359 11.807 28.0094L24.5064 14.9249L25.5396 15.9894C25.9618 16.35 26.3843 16.35 26.8065 15.9894C27.1563 15.629 27.1563 15.0446 26.8065 14.6839L23.5512 11.3302L26.7414 8.04332C27.9463 8.89782 29.1254 8.82776 30.2788 7.83314C30.7818 7.31482 31.0588 6.62564 31.0588 5.89251C31.0588 5.15957 30.7818 4.47026 30.2787 3.95195ZM10.8791 26.3546L6.37942 25.4273L5.47944 20.7916L7.84028 18.3592L13.2397 23.9222L10.8791 26.3546ZM21.1731 15.7483L19.5845 14.1116C19.2347 13.751 18.6674 13.751 18.3175 14.1116C17.9677 14.472 17.9677 15.0564 18.3175 15.4171L19.906 17.0538L17.84 19.1827L16.2512 17.5459C15.9014 17.1853 15.3341 17.1853 14.9842 17.5459C14.6344 17.9063 14.6344 18.4908 14.9842 18.8514L16.573 20.4881L14.5067 22.617L9.10707 17.0538L17.8398 8.05645L23.2394 13.6197L21.1731 15.7483ZM22.2842 10.0248L21.3292 9.04057L24.5064 5.76695L25.4615 6.75107L22.2842 10.0248ZM29.0117 6.52764C28.6716 6.87776 28.1186 6.87776 27.7788 6.52764L24.7232 3.37951C24.3834 3.02939 24.3834 2.45951 24.7232 2.1092C25.1341 1.75857 25.5452 1.75857 25.9561 2.1092L29.0115 5.25739C29.352 5.68076 29.352 6.10407 29.0117 6.52764Z" fill="white" stroke="#1264D5" stroke-width="0.3"/>
</g>
<defs>
<clipPath id="clip0_174_1116">
<rect width="31.0588" height="32" fill="white"/>
</clipPath>
</defs>
</svg>
