<svg width="33" height="32" viewBox="0 0 33 32" fill="none" xmlns="http://www.w3.org/2000/svg">
<path d="M25.7786 7.9999V8.1499H25.9286H29.4643C30.3622 8.1499 31.2234 8.5066 31.8583 9.14155C32.4933 9.77649 32.85 10.6377 32.85 11.5356V28.0356C32.85 28.9336 32.4933 29.7947 31.8583 30.4297C31.2234 31.0646 30.3622 31.4213 29.4643 31.4213H3.53571C2.63777 31.4213 1.7766 31.0646 1.14165 30.4297C0.506708 29.7947 0.15 28.9336 0.15 28.0356V11.5356C0.15 10.6377 0.506708 9.77649 1.14165 9.14155C1.7766 8.5066 2.63777 8.1499 3.53571 8.1499H7.07143H7.22143V7.9999V4.46418C7.22143 3.56623 7.57814 2.70506 8.21308 2.07012C8.84803 1.43518 9.7092 1.07847 10.6071 1.07847H22.3929C23.2908 1.07847 24.152 1.43518 24.7869 2.07012C25.4219 2.70506 25.7786 3.56623 25.7786 4.46418V7.9999ZM23.5714 8.1499H23.7214V7.9999V4.46418C23.7214 4.11182 23.5815 3.77389 23.3323 3.52474C23.0831 3.27558 22.7452 3.13561 22.3929 3.13561H10.6071C10.2548 3.13561 9.91686 3.27558 9.6677 3.52474C9.41855 3.77389 9.27857 4.11182 9.27857 4.46418V7.9999V8.1499H9.42857H23.5714ZM30.4037 28.9751C30.6529 28.7259 30.7929 28.388 30.7929 28.0356V11.5356C30.7929 11.1833 30.6529 10.8453 30.4037 10.5962C30.1546 10.347 29.8166 10.207 29.4643 10.207H3.53571C3.18336 10.207 2.84543 10.347 2.59627 10.5962C2.34712 10.8453 2.20714 11.1833 2.20714 11.5356V28.0356C2.20714 28.388 2.34712 28.7259 2.59627 28.9751C2.84543 29.2242 3.18336 29.3642 3.53571 29.3642H29.4643C29.8166 29.3642 30.1546 29.2242 30.4037 28.9751Z" fill="white" stroke="#1264D5" stroke-width="0.3"/>
<path d="M17.529 18.6072V18.7572H17.679H20.0361C20.3089 18.7572 20.5705 18.8655 20.7634 19.0584C20.9563 19.2513 21.0647 19.5129 21.0647 19.7857C21.0647 20.0585 20.9563 20.3201 20.7634 20.513C20.5705 20.7059 20.3089 20.8143 20.0361 20.8143H17.679H17.529V20.9643V23.3214C17.529 23.5942 17.4206 23.8559 17.2277 24.0488C17.0348 24.2416 16.7732 24.35 16.5004 24.35C16.2276 24.35 15.966 24.2416 15.7731 24.0488C15.5802 23.8559 15.4718 23.5942 15.4718 23.3214V20.9643V20.8143H15.3218H12.9647C12.6919 20.8143 12.4303 20.7059 12.2374 20.513C12.0445 20.3201 11.9361 20.0585 11.9361 19.7857C11.9361 19.5129 12.0445 19.2513 12.2374 19.0584C12.4303 18.8655 12.6919 18.7572 12.9647 18.7572H15.3218H15.4718V18.6072V16.25C15.4718 15.9772 15.5802 15.7156 15.7731 15.5227C15.966 15.3298 16.2276 15.2214 16.5004 15.2214C16.7732 15.2214 17.0348 15.3298 17.2277 15.5227C17.4206 15.7156 17.529 15.9772 17.529 16.25V18.6072Z" fill="white" stroke="#1264D5" stroke-width="0.3"/>
</svg>
