<svg width="32" height="29" viewBox="0 0 32 29" fill="none" xmlns="http://www.w3.org/2000/svg">
<path d="M25.1423 9.11872L15.0751 9.13081C14.3081 9.13175 13.5728 9.43525 13.0304 9.97475C12.4881 10.5143 12.183 11.2457 12.182 12.0087V15.1822H9.88185C10.3861 14.53 10.6607 13.731 10.6633 12.9083C10.6674 12.3054 10.5268 11.7103 10.2533 11.1723C9.97968 10.6343 9.58101 10.169 9.09037 9.81505C8.59973 9.4611 8.03127 9.22871 7.43221 9.13718C6.83316 9.04564 6.22079 9.09761 5.64597 9.28877C5.07116 9.47992 4.55049 9.80475 4.12721 10.2363C3.70394 10.6678 3.39027 11.1935 3.21226 11.7698C3.03425 12.3461 2.99705 12.9564 3.10373 13.5498C3.21041 14.1433 3.45791 14.7029 3.82566 15.1822H1.52405V0.781404C1.52718 0.67993 1.50978 0.578853 1.4729 0.484192C1.43602 0.389531 1.3804 0.303211 1.30935 0.230334C1.2383 0.157457 1.15327 0.0995231 1.05928 0.0599558C0.965291 0.0203886 0.864263 0 0.762205 0C0.660148 0 0.559137 0.0203886 0.46515 0.0599558C0.371163 0.0995231 0.286113 0.157457 0.215061 0.230334C0.144008 0.303211 0.0883893 0.389531 0.0515086 0.484192C0.014628 0.578853 -0.00276683 0.67993 0.000357182 0.781404V28.068C0.00642134 28.2649 0.0893471 28.4518 0.231559 28.589C0.373771 28.7262 0.564097 28.803 0.762205 28.803C0.960314 28.803 1.15064 28.7262 1.29285 28.589C1.43506 28.4518 1.51799 28.2649 1.52405 28.068V22.762H30.4763V28.068C30.4824 28.2649 30.5653 28.4518 30.7075 28.589C30.8497 28.7262 31.0401 28.803 31.2382 28.803C31.4363 28.803 31.6266 28.7262 31.7688 28.589C31.911 28.4518 31.9939 28.2649 32 28.068V15.9404C31.9979 14.1318 31.2747 12.3979 29.9891 11.119C28.7035 9.84016 26.9605 9.12079 25.1423 9.11872ZM13.6821 12.0087C13.6827 11.6414 13.8297 11.2893 14.0908 11.0295C14.3519 10.7698 14.7058 10.6236 15.0751 10.623L25.1423 10.6344C26.4244 10.6361 27.6632 11.0964 28.6323 11.9314C29.6015 12.7663 30.2365 13.9201 30.4213 15.1822H13.7129V12.7569L13.6821 12.7484V12.0087ZM6.85518 10.6344C7.30728 10.6344 7.74924 10.7678 8.12516 11.0176C8.50107 11.2675 8.79406 11.6226 8.96707 12.0381C9.14008 12.4536 9.18536 12.9108 9.09715 13.3519C9.00895 13.793 8.79124 14.1982 8.47155 14.5162C8.15186 14.8342 7.74455 15.0507 7.30113 15.1385C6.85771 15.2262 6.3981 15.1812 5.9804 15.0091C5.56271 14.837 5.20571 14.5455 4.95453 14.1716C4.70335 13.7977 4.56928 13.358 4.56928 12.9083C4.56928 12.3052 4.81013 11.7268 5.23882 11.3004C5.66751 10.874 6.24892 10.6344 6.85518 10.6344ZM30.4763 21.2463H1.52405V16.6986H30.4763V21.2463Z" fill="white"/>
</svg>
