<svg width="32" height="32" viewBox="0 0 32 32" fill="none" xmlns="http://www.w3.org/2000/svg">
<path d="M15.1904 16.2912H16.8096C20.3376 16.2912 23.2096 13.4192 23.2096 9.89119V6.39999C23.2096 2.872 20.3376 0 16.8096 0H15.1904C11.6624 0 8.79043 2.872 8.79043 6.39999V9.89119C8.79043 13.4192 11.6624 16.2912 15.1904 16.2912ZM15.1904 1.6H16.8096C19.4064 1.6 21.5232 3.6744 21.6016 6.25279C20.9478 6.5148 20.25 6.65 19.5456 6.65119C18.7627 6.65026 17.9886 6.48591 17.2728 6.16866C16.557 5.85141 15.9153 5.38824 15.3888 4.80879C15.2462 4.65186 15.0471 4.55798 14.8353 4.54778C14.6235 4.53758 14.4163 4.6119 14.2592 4.75439C14.1264 4.87673 14.0396 5.041 14.0134 5.21969C13.9871 5.39838 14.0231 5.58065 14.1152 5.73599C13.1289 6.52137 11.9048 6.94792 10.644 6.94559C10.5592 6.94559 10.476 6.93119 10.3912 6.92799V6.39999C10.3912 3.7536 12.544 1.6 15.1904 1.6ZM10.3904 8.52799C10.4752 8.53039 10.5584 8.54559 10.6432 8.54559C12.364 8.54559 13.9872 7.94799 15.284 6.85279C16.5199 7.75921 18.0122 8.24896 19.5448 8.25119C20.2544 8.25119 20.9432 8.13999 21.6088 7.94079V9.89119C21.6088 12.5376 19.4568 14.6912 16.8088 14.6912H15.1904C12.544 14.6912 10.3904 12.5376 10.3904 9.89119V8.52799ZM26.6896 17.5704L20.6576 16.712C20.5061 16.6901 20.3515 16.7123 20.2122 16.7758C20.0729 16.8394 19.9548 16.9416 19.872 17.0704L16 23.0704L12.128 17.0704C12.0459 16.9412 11.928 16.8385 11.7887 16.7749C11.6494 16.7113 11.4947 16.6895 11.3432 16.712L5.24083 17.584C3.74737 17.9278 2.41516 18.7691 1.46285 19.9699C0.510544 21.1706 -0.0052795 22.6594 4.07463e-05 24.192V30.6912C4.07463e-05 30.9033 0.0843263 31.1068 0.234355 31.2568C0.384384 31.4069 0.587867 31.4912 0.80004 31.4912H31.2C31.4122 31.4912 31.6157 31.4069 31.7657 31.2568C31.9157 31.1068 32 30.9033 32 30.6912V24.1928C32 21.0216 29.8448 18.3048 26.6896 17.5704ZM30.4 29.8904H1.60004V24.1936C1.60004 21.7696 3.24724 19.6936 5.53603 19.156L11.0616 18.3688L15.3272 24.9784C15.4792 25.2144 15.7352 25.344 15.9968 25.3448H16.0032C16.1365 25.3444 16.2676 25.3107 16.3846 25.2467C16.5015 25.1827 16.6006 25.0904 16.6728 24.9784L20.9384 18.3688L26.3944 19.1424C27.536 19.4051 28.5543 20.0483 29.2822 20.9662C30.0101 21.884 30.4043 23.0221 30.4 24.1936V29.8904Z" fill="white"/>
<path d="M25.5124 23.7897H24.7564V23.0321C24.7564 22.8199 24.6721 22.6164 24.5221 22.4664C24.3721 22.3164 24.1686 22.2321 23.9564 22.2321C23.7442 22.2321 23.5407 22.3164 23.3907 22.4664C23.2407 22.6164 23.1564 22.8199 23.1564 23.0321V23.7897H22.3996C22.1874 23.7897 21.984 23.874 21.8339 24.024C21.6839 24.174 21.5996 24.3775 21.5996 24.5897C21.5996 24.8018 21.6839 25.0053 21.8339 25.1554C21.984 25.3054 22.1874 25.3897 22.3996 25.3897H23.1564V26.1457C23.1564 26.3578 23.2407 26.5613 23.3907 26.7114C23.5407 26.8614 23.7442 26.9457 23.9564 26.9457C24.1686 26.9457 24.3721 26.8614 24.5221 26.7114C24.6721 26.5613 24.7564 26.3578 24.7564 26.1457V25.3897H25.5124C25.7246 25.3897 25.9281 25.3054 26.0781 25.1554C26.2281 25.0053 26.3124 24.8018 26.3124 24.5897C26.3124 24.3775 26.2281 24.174 26.0781 24.024C25.9281 23.874 25.7246 23.7897 25.5124 23.7897Z" fill="white"/>
</svg>
